<?xml version="1.0" encoding="utf-8"?>
<!-- Generator: Adobe Illustrator 24.0.2, SVG Export Plug-In . SVG Version: 6.00 Build 0)  -->
<!DOCTYPE svg [
	<!ENTITY ns_extend "http://ns.adobe.com/Extensibility/1.0/">
	<!ENTITY ns_ai "http://ns.adobe.com/AdobeIllustrator/10.0/">
	<!ENTITY ns_graphs "http://ns.adobe.com/Graphs/1.0/">
	<!ENTITY ns_vars "http://ns.adobe.com/Variables/1.0/">
	<!ENTITY ns_imrep "http://ns.adobe.com/ImageReplacement/1.0/">
	<!ENTITY ns_sfw "http://ns.adobe.com/SaveForWeb/1.0/">
	<!ENTITY ns_custom "http://ns.adobe.com/GenericCustomNamespace/1.0/">
	<!ENTITY ns_adobe_xpath "http://ns.adobe.com/XPath/1.0/">
]>
<svg version="1.2" baseProfile="tiny-ps" id="Layer_1" xmlns:x="&ns_extend;" xmlns:i="&ns_ai;" xmlns:graph="&ns_graphs;"
	 xmlns="http://www.w3.org/2000/svg" xmlns:xlink="http://www.w3.org/1999/xlink" viewBox="0 0 100 100"
	 xml:space="preserve">

<title> IT Y' ALL </title>

	<g>
		<g>
			<text transform="matrix(1 0 0 1 66.249 59.0052)" font-family="'Montserrat-UltraLight'" font-size="5px">T</text>
			<text transform="matrix(1 0 0 1 68.939 59.0052)" font-family="'Montserrat-UltraLight'" font-size="5px">E</text>
			<text transform="matrix(1 0 0 1 72.1738 59.0052)" font-family="'Montserrat-UltraLight'" font-size="5px">X</text>
			<text transform="matrix(1 0 0 1 75.3638 59.0052)" font-family="'Montserrat-UltraLight'" font-size="5px">A</text>
			<text transform="matrix(1 0 0 1 78.8091 59.0052)" font-family="'Montserrat-UltraLight'" font-size="5px">S</text>
			<text transform="matrix(1 0 0 1 51.3037 65.0052)" font-family="'Montserrat-Black'" font-size="5px">C</text>
			<text transform="matrix(1 0 0 1 54.9487 65.0052)" font-family="'Montserrat-Black'" font-size="5px">O</text>
			<text transform="matrix(1 0 0 1 59.1885 65.0052)" font-family="'Montserrat-Black'" font-size="5px">M</text>
			<text transform="matrix(1 0 0 1 63.9585 65.0052)" font-family="'Montserrat-Black'" font-size="5px">P</text>
			<text transform="matrix(1 0 0 1 67.5737 65.0052)" font-family="'Montserrat-Black'" font-size="5px">U</text>
			<text transform="matrix(1 0 0 1 71.4438 65.0052)" font-family="'Montserrat-Black'" font-size="5px">T</text>
			<text transform="matrix(1 0 0 1 74.7134 65.0052)" font-family="'Montserrat-Black'" font-size="5px">E</text>
			<text transform="matrix(1 0 0 1 78.0786 65.0052)" font-family="'Montserrat-Black'" font-size="5px">R</text>
			<text transform="matrix(1 0 0 1 59.5293 71.0052)" font-family="'Montserrat-UltraLight'" font-size="5px">E</text>
			<text transform="matrix(1 0 0 1 62.7642 71.0052)" font-family="'Montserrat-UltraLight'" font-size="5px">X</text>
			<text transform="matrix(1 0 0 1 65.9541 71.0052)" font-family="'Montserrat-UltraLight'" font-size="5px">P</text>
			<text transform="matrix(1 0 0 1 69.2739 71.0052)" font-family="'Montserrat-UltraLight'" font-size="5px">E</text>
			<text transform="matrix(1 0 0 1 72.5088 71.0052)" font-family="'Montserrat-UltraLight'" font-size="5px">R</text>
			<text transform="matrix(1 0 0 1 76.1191 71.0052)" font-family="'Montserrat-UltraLight'" font-size="5px">T</text>
			<text transform="matrix(1 0 0 1 78.8091 71.0052)" font-family="'Montserrat-UltraLight'" font-size="5px">S</text>
			<path d="M34.47,46.74c1.14,0.67,1.39,0.14,1.53-0.93c0.23-1.79,0.64-3.55,0.97-5.33c-0.63-0.28-1.6,0.21-1.52-1.05
				c1.21-0.12,2.42-0.24,3.62-0.34c0.74-0.06,1.2,0.23,1.14,1.21c-0.39,0-0.76-0.06-1.1,0.02c-0.24,0.06-0.57,0.3-0.61,0.51
				c-0.37,1.89-0.69,3.8-1.01,5.64c0.61,0.19,1.17,0.3,1.66,0.57c0.16,0.08,0.15,0.56,0.21,0.83c-1.36,0.14-2.63,0.29-3.9,0.39
				C34.58,48.32,34.26,47.84,34.47,46.74z"/>
			<path d="M41.84,48.08c0.44-2.42,0.87-4.79,1.33-7.32c-0.9,0.11-1.75,0.21-2.66,0.32c0-1,0.38-1.48,1.25-1.47
				c1.04,0,2.07-0.05,3.11,0.01c1.1,0.07,2.07-0.1,2.7-1.3c0.77,0.79,0.46,1.45-0.11,1.94c-0.35,0.3-0.89,0.54-1.32,0.49
				c-1.17-0.13-1.62,0.31-1.73,1.59c-0.13,1.53-0.59,3.03-0.75,4.56C43.53,48.1,43.08,48.5,41.84,48.08z"/>
			<path d="M57.3,39.22c0.4,0.12,1.02,0.13,1.13,0.38c0.13,0.32-0.07,0.91-0.29,1.27c-0.43,0.69-0.88,1.45-1.5,1.91
				c-1.38,1.03-1.63,2.55-1.83,4.13c-0.16,1.31-0.23,1.38-1.74,1.14c0.79-3.07,1.13-6.13-1.47-8.49c0.95-0.9,1.46-0.92,2.02,0.09
				c0.57,1.01,0.97,2.12,1.56,3.46c0.8-1.23,1.53-2.34,2.25-3.44C57.38,39.52,57.34,39.37,57.3,39.22z"/>
			<path d="M59.46,38.11c0.7-0.41,1.37-0.75,1.92,0.02c0.46,0.64-0.1,2.26-0.94,2.78c-0.54,0.34-1.15,0.59-1.52-0.32
				C60.25,39.94,60.33,39.61,59.46,38.11z"/>
			<path d="M68.07,47.77c-0.73,0.64-1.38,0.88-1.82-0.19c-0.29-0.68-0.45-1.42-0.68-2.18c-0.45,0-0.89,0-1.33,0
				c-1.37,0-1.91,0.36-1.91,1.76c0,1.35-0.7,1.09-1.71,1.07c0.25-0.98,0.47-1.86,0.72-2.81c-0.3,0.03-0.63,0.07-1.04,0.12
				c0.01-0.93,0.56-1.15,1.25-1.32c0.38-0.09,0.79-0.34,1.04-0.65c0.83-1.02,1.54-2.16,2.4-3.13c0.44-0.5,1.12-0.75,1.9-1.24
				C66.89,42.32,66.65,45.14,68.07,47.77z M63.43,44.35c2.22,0.23,2.47-0.17,1.72-2.57C64.59,42.62,64.07,43.41,63.43,44.35z"/>
			<path d="M74.08,46.5c-0.07,0.27-0.1,0.5-0.19,0.68c-0.6,1.1-4.24,1.59-4.98,0.6c-0.28-0.37-0.35-1.05-0.28-1.55
				c0.32-2.28,0.7-4.55,1.16-6.79c0.06-0.28,0.71-0.45,1.11-0.57c0.06-0.02,0.42,0.58,0.38,0.84c-0.31,2-0.68,3.99-1.03,5.98
				c-0.22,1.22-0.08,1.46,1.08,1.38C72.19,47,73.04,46.72,74.08,46.5z"/>
			<path d="M80.24,46.69c-0.44,0.38-0.83,0.96-1.32,1.09c-0.96,0.24-1.97,0.3-2.96,0.29c-1.04-0.01-1.52-0.72-1.33-1.84
				c0.39-2.34,0.76-4.68,1.23-7c0.05-0.26,0.65-0.51,1.01-0.52c0.16-0.01,0.53,0.6,0.49,0.87c-0.31,2.04-0.67,4.07-1.08,6.08
				c-0.21,1.04,0.24,1.35,1.04,1.25c0.89-0.11,1.77-0.35,2.66-0.54C80.07,46.48,80.15,46.59,80.24,46.69z"/>
			<path d="M44.03,27.1c0,2.04,0.11,4-0.04,5.94c-0.1,1.34-1.19,0.31-1.9,0.87c0-1.74,0-3.2,0-4.74c-3.81,0-7.5,0-11.33,0
				c0,4.79,0,9.6,0,14.53c-3.09,0-6.04,0-9.4,0c0.97,1.36,1.64,2.55,2.54,3.48c0.88,0.91,1.56,1.85,1.93,3.12
				c0.71,2.43,2.39,4.64,4.42,6c0.34-0.39,0.68-0.8,1.04-1.19c1.68-1.78,3.93-1.64,5.4,0.36c2.04,2.77,3.69,5.79,4.7,9.17
				c0.61,2.02,1.72,3.48,3.63,4.23c0.93,0.37,1.78,0.94,2.87,1.53c-0.25-1.56-0.45-2.87-0.67-4.18c-0.82-4.88,1.71-9.44,5.57-11.45
				c4-2.09,8.27-2.25,12.6-2.03c0.14,0.01,0.29,0.07,0.42,0.14c0.05,0.02,0.07,0.12,0.18,0.3c-0.76,0.14-1.47,0.27-2.18,0.41
				c-2.89,0.55-5.75,1.19-8.39,2.63c-4.73,2.59-7.21,7.7-6.54,13.39c0.1,0.86,0.12,1.72,0.21,2.95c-1.15-0.28-2.07-0.46-2.96-0.73
				c-0.46-0.14-0.85-0.53-1.31-0.63c-2.96-0.68-4.34-3.09-5.54-5.74c-1.12-2.47-2.29-4.91-3.44-7.36c-0.13-0.28-0.29-0.56-0.47-0.81
				c-1.1-1.54-1.67-1.57-2.86-0.15c-0.2,0.23-0.38,0.49-0.59,0.71c-1.38,1.42-2.11,1.36-3.61,0.03c-2.25-2-4.03-4.3-4.75-7.43
				c-0.11-0.49-0.59-0.88-0.89-1.32c-1.22-1.73-2.54-3.39-3.62-5.22c-0.71-1.2,0.08-2.35,1.41-2.35c2.34,0,4.67,0,7.01,0
				c0.36,0,0.72-0.04,1.22-0.06c0-2.46,0-4.85,0-7.24c0-2.35,0-4.71,0-7.15C33.8,27.1,38.83,27.1,44.03,27.1z"/>
		</g>
	</g>

</svg>
