<?xml version="1.0" encoding="utf-8"?>
<!-- Generator: Adobe Illustrator 24.0.2, SVG Export Plug-In . SVG Version: 6.00 Build 0)  -->
<!DOCTYPE svg [
	<!ENTITY ns_extend "http://ns.adobe.com/Extensibility/1.0/">
	<!ENTITY ns_ai "http://ns.adobe.com/AdobeIllustrator/10.0/">
	<!ENTITY ns_graphs "http://ns.adobe.com/Graphs/1.0/">
	<!ENTITY ns_vars "http://ns.adobe.com/Variables/1.0/">
	<!ENTITY ns_imrep "http://ns.adobe.com/ImageReplacement/1.0/">
	<!ENTITY ns_sfw "http://ns.adobe.com/SaveForWeb/1.0/">
	<!ENTITY ns_custom "http://ns.adobe.com/GenericCustomNamespace/1.0/">
	<!ENTITY ns_adobe_xpath "http://ns.adobe.com/XPath/1.0/">
]>
<svg version="1.2" baseProfile="tiny-ps" id="Layer_1" xmlns:x="&ns_extend;" xmlns:i="&ns_ai;" xmlns:graph="&ns_graphs;"
	 xmlns="http://www.w3.org/2000/svg" xmlns:xlink="http://www.w3.org/1999/xlink" viewBox="0 0 750 750"
	 xml:space="preserve">

<title>IT Y'ALL</title>


	<g>
		<g id="Layer_3">
			<rect x="-21" y="-21" fill="#C3DE95" width="792" height="792"/>
		</g>
		<g id="Layer_1_1_">
			<path d="M315.8,318.4c0,0.5-0.1,1.1-0.2,1.7c-0.7-0.3-1.5-0.5-2.3-0.6c-0.8-0.1-1.5-0.2-2.3-0.2c-0.9,0-1.8,0.1-2.7,0.2
				c-0.9,0.1-1.9,0.3-3.1,0.4l-7.5,37.8l2.5-0.3c1.2-0.2,2.2-0.3,3.1-0.4s1.7-0.1,2.4-0.1c0.7,0,1.4,0.1,2.1,0.2
				c0.5,0.1,1,0.4,1.4,0.8c0.4,0.4,0.6,0.9,0.7,1.5c0.2,0.7,0.2,1.5,0.2,2.3v0.7c0,0.2,0,0.5,0,0.8L310,365c-1.9-0.6-4-0.9-6-0.8
				c-0.4,0-1.1,0-1.9,0.1s-1.8,0.1-2.7,0.2l-2.9,0.3l-2.4,0.3l-4.2,0.6c-0.5,0.1-1.1,0.1-1.7,0.2s-1.2,0.1-1.8,0.2l-1.6,0.1h-1
				c-1,0-2-0.1-3-0.2c-0.7-0.1-1.4-0.4-1.9-0.9c-0.5-0.4-0.8-1-1-1.7c-0.2-0.9-0.3-1.8-0.3-2.7c0-0.4,0-0.8,0.1-1.2
				c0.1-0.5,0.1-1,0.2-1.6c1.7,0.9,3.7,1.3,5.6,1.2c1.2,0,2.5-0.2,3.7-0.4l7.5-37.7c-1.2,0.2-2.3,0.3-3.3,0.4s-1.8,0.1-2.2,0.1
				c-0.7,0-1.4-0.1-2.1-0.3c-0.6-0.2-1-0.6-1.4-1.1c-0.4-0.7-0.6-1.5-0.7-2.3c-0.1-1.3-0.2-2.5-0.2-3.8c0.4,0.2,0.7,0.3,1.1,0.4
				c0.4,0.1,0.9,0.2,1.3,0.3c0.4,0.1,0.8,0.1,1.3,0.2c0.4,0,0.8,0,1.1,0c1.4,0,2.9-0.1,4.3-0.4c1.5-0.3,3.1-0.6,4.6-0.9l3.1-0.6
				c1.9-0.4,3.5-0.6,5-0.8c1.2-0.2,2.5-0.2,3.7-0.2c2,0,3.5,0.4,4.4,1.2c1,1,1.5,2.4,1.3,3.8C316,317.4,315.9,317.9,315.8,318.4
				L315.8,318.4z M367.2,315.6c-1,1.4-2.3,2.6-3.8,3.4c-1.9,1-3.9,1.8-5.9,2.2c-2.6,0.5-5.2,0.8-7.8,0.8h-3.5l-6.2,31.3
				c-0.3,1.3-0.5,2.6-0.6,3.9c-0.1,1.2-0.2,2.4-0.2,3.4c0,1.2,0.2,2.3,0.7,3.3c-2,0.8-4.2,1.2-6.4,1.3c-1.3,0.1-2.7-0.2-3.8-0.9
				c-0.9-0.7-1.4-1.8-1.3-3c0-0.3,0-0.7,0-1.1s0.1-0.9,0.1-1.5s0.2-1.3,0.3-2.1s0.3-1.8,0.6-3l6.3-31.8h-4.5c-2.7,0-5.2,0.1-7.5,0.3
				c-2.1,0.2-4.1,0.7-6,1.6c0.1-1.3,0.3-2.6,0.5-3.8c0.2-0.9,0.5-1.9,1-2.7c0.5-0.7,1.1-1.3,1.9-1.7c1-0.5,2.1-0.8,3.2-0.9
				c1.6-0.2,3.2-0.4,4.9-0.4c1.9-0.1,4.2-0.1,6.9-0.1h13.1c2.2,0,4,0,5.5-0.1c1.4,0,2.7-0.3,4-0.8c1.2-0.5,2.3-1.2,3.1-2
				c1.2-1.2,2.2-2.6,3-4c1,0.3,1.8,0.8,2.6,1.5c0.6,0.6,1,1.5,1,2.4C368.6,312.8,368.1,314.3,367.2,315.6L367.2,315.6z M425.5,321.4
				c-1.9,2.8-4.1,5.4-6.5,7.8c-2,2-4,4-6,5.9c-2,1.9-4.2,3.8-6.4,5.7l-2.5,12.6c-0.5,2.4-0.8,4.9-0.8,7.4c0,0.6,0.1,1.2,0.2,1.8
				c0.1,0.5,0.3,1,0.6,1.5c-1.2,0.4-2.5,0.7-3.8,1c-0.9,0.2-1.8,0.3-2.8,0.3c-1.3,0.1-2.7-0.3-3.7-1.1c-0.8-0.9-1.2-2.1-1.1-3.3
				c0-1,0.1-2,0.2-3c0.2-1.2,0.4-2.5,0.7-4.1l2.6-13c-0.6-2.8-1.4-5.5-2.4-8.1c-1-2.7-2.1-5.3-3.4-7.8c-0.7-1.4-1.4-2.7-2.1-3.8
				c-0.6-1-1.3-2-2.1-2.9c-0.7-0.8-1.4-1.6-2.2-2.3c-0.8-0.7-1.6-1.3-2.4-1.8c1.1-0.9,2.4-1.7,3.8-2.3c1.1-0.4,2.2-0.7,3.3-0.7
				c0.9,0,1.9,0.2,2.7,0.7c0.9,0.5,1.7,1.1,2.5,1.8c0.8,0.8,1.6,1.7,2.2,2.6c0.7,1,1.3,2,1.9,3c0.6,1,1.1,2,1.5,3s0.8,1.9,1.1,2.7
				l3.7,9.6c3.5-2.9,6.6-6,9.5-9.5c2.9-3.5,4.3-6.3,4.3-8.2c-0.1-0.9-0.4-1.8-1-2.5c2.2-0.8,4.4-1.3,6.7-1.5c2.6,0,3.8,1,3.8,3
				C427.7,317.3,427,319.2,425.5,321.4L425.5,321.4z M447.8,320c-1.3,1.8-3,3.3-4.9,4.4c-1.7,1-3.7,1.6-5.7,1.6
				c-1,0.1-2.1-0.2-2.9-0.9c-0.6-0.7-0.9-1.6-0.9-2.6v-0.3c0-0.1,0-0.2,0-0.4c0.6,0.2,1.3,0.2,1.9,0.2c0.9,0,1.8-0.2,2.6-0.5
				c0.8-0.3,1.5-0.8,2-1.5c0.6-0.7,1-1.4,1.2-2.2c0.3-0.9,0.4-1.9,0.4-2.9c0-2.5-1.4-4.8-4.2-6.9c0.9-0.5,1.7-1,2.5-1.3
				c0.7-0.3,1.3-0.6,2-0.8c0.6-0.2,1.2-0.4,1.8-0.5c0.5-0.1,1.1-0.1,1.6-0.1c1.6-0.1,3.1,0.4,4.2,1.5c1.1,1.2,1.6,2.8,1.5,4.4
				C450.9,314.4,449.8,317.5,447.8,320L447.8,320z M497.6,364.4c-1,0.5-2.1,0.7-3.1,0.7c-1.1,0-2.3-0.3-3.2-0.9
				c-1.1-0.7-2-1.7-2.6-2.9c-0.9-1.6-1.6-3.3-2.1-5.1c-0.7-2.1-1.3-4.6-1.9-7.6l-4.8,0.3c-1.7,0.1-3.2,0.2-4.6,0.2h-4.4l-2.3,0
				L466,349l-0.7,1.3c-1,1.9-1.9,3.9-2.6,6c-0.6,1.5-0.9,3.1-0.9,4.8c0,0.9,0.4,1.9,1,2.6c-0.5,0.3-1.1,0.5-1.6,0.7
				c-0.6,0.2-1.2,0.4-1.8,0.5c-0.6,0.1-1.2,0.3-1.9,0.4c-0.6,0.1-1.2,0.1-1.8,0.1c-0.9,0-1.8-0.2-2.6-0.7c-0.7-0.5-1.1-1.3-1-2.1
				c0-2.8,2.1-7.5,6.3-14l-0.9,0h-0.8c-1.3,0-2.7,0.1-4,0.3c-1.2,0.2-2.4,0.6-3.5,1.1c0.3-1.2,0.7-2.4,1.2-3.5
				c0.4-0.9,0.9-1.6,1.7-2.3c0.7-0.6,1.6-1,2.5-1.2c1.2-0.3,2.4-0.4,3.6-0.4h1.3c0.6,0,1.5,0,2.4,0.1l2.5-3.6
				c0.8-1.1,1.5-2.2,2.3-3.3s1.5-2.1,2.2-3.1l2.3-3.1c1.8-2.4,3.4-4.4,4.7-6.1c1.3-1.7,2.5-3.2,3.6-4.4c1-1.1,2-2.1,3.1-2.9
				c0.9-0.7,2-1.3,3.1-1.8c1.1-0.5,2.4-0.8,3.6-1c1.3-0.2,2.8-0.4,4.6-0.5c-0.3,2-0.5,4-0.7,5.9s-0.2,3.9-0.2,5.9s0,4,0.1,6.2
				s0.2,4.5,0.5,6.8s0.5,4.6,1,7c0.4,2.3,0.9,4.5,1.5,6.7c0.6,2.1,1.3,4.1,2.2,6c0.8,1.7,1.9,3.4,3.1,4.8
				C500.2,363,498.9,363.8,497.6,364.4L497.6,364.4z M483,333.8c-0.2-2.7-0.3-5.2-0.3-7.3c0-0.4,0-0.8,0-1.2s0-0.8,0-1.3
				c-0.7,0.8-1.3,1.6-2,2.5s-1.3,1.6-1.9,2.5s-1.3,1.7-1.9,2.6s-1.3,1.9-2,2.9c-1.2,1.8-2.3,3.4-3.2,4.9c-0.9,1.5-1.7,2.8-2.2,3.7
				c0.7,0,1.5,0.1,2.5,0.1h4c1.7,0,3.2-0.1,4.4-0.1c1.3-0.1,2.4-0.2,3.5-0.2C483.4,339.5,483.1,336.5,483,333.8L483,333.8z
				 M546.1,359.5c-0.6,1-1.5,1.9-2.5,2.5c-1.3,0.7-2.6,1.2-4,1.6c-1.7,0.4-3.4,0.8-5.1,1c-1.8,0.3-3.8,0.5-5.8,0.6s-4.1,0.2-6.1,0.2
				c-1.6,0-3.2-0.1-4.8-0.3c-1.4-0.2-2.7-0.5-3.9-1.1c-1.1-0.5-2-1.3-2.7-2.2c-0.7-1.1-1.1-2.4-1-3.7c0-1.5,0.2-2.9,0.5-4.4
				c0.3-2,0.7-4.3,1.3-7.1l5.5-27.5c0.2-1.2,0.4-2.3,0.6-3.2c0.1-0.7,0.2-1.4,0.2-2.1c0-1-0.3-1.9-0.8-2.7c2.4-1,4.9-1.6,7.5-1.8
				c2.7,0,4.1,1.1,4.1,3.4c0,1.1-0.1,2.1-0.3,3.2c-0.2,1.4-0.5,3-0.9,4.9l-4.8,23.9c-0.2,0.8-0.3,1.5-0.5,2.4s-0.3,1.6-0.4,2.4
				s-0.2,1.5-0.3,2.2c-0.1,0.6-0.1,1.2-0.1,1.8c0,0.7,0.1,1.3,0.4,1.9c0.3,0.6,0.8,1,1.4,1.3c0.8,0.4,1.7,0.6,2.5,0.7
				c1.3,0.2,2.6,0.2,3.9,0.2c2.8,0,5.6-0.3,8.3-0.8c2.9-0.6,5.8-1.5,8.6-2.6c0,0.2,0.1,0.5,0.1,0.8s0,0.5,0,0.8
				C547,357,546.7,358.3,546.1,359.5L546.1,359.5z M588.7,359.5c-0.6,1-1.5,1.9-2.5,2.5c-1.3,0.7-2.6,1.2-4,1.6
				c-1.7,0.4-3.4,0.8-5.1,1c-1.9,0.3-3.8,0.5-5.8,0.6c-2,0.1-4.1,0.2-6.1,0.2c-1.6,0-3.2-0.1-4.8-0.3c-1.4-0.2-2.7-0.5-3.9-1.1
				c-1.1-0.5-2-1.3-2.7-2.2c-0.7-1.1-1-2.4-1-3.7c0.1-1.5,0.2-2.9,0.5-4.4c0.3-2,0.8-4.3,1.3-7.1L560,319c0.2-1.2,0.4-2.3,0.6-3.2
				c0.1-0.7,0.2-1.4,0.2-2.1c0-1-0.3-1.9-0.8-2.7c2.4-1,4.9-1.6,7.5-1.8c2.7,0,4.1,1.1,4.1,3.4c0,1.1-0.1,2.1-0.3,3.2
				c-0.2,1.4-0.5,3-0.9,4.9l-4.8,23.9c-0.2,0.8-0.3,1.5-0.5,2.4s-0.3,1.6-0.4,2.4s-0.2,1.5-0.3,2.2c-0.1,0.6-0.1,1.2-0.1,1.8
				c0,0.7,0.1,1.3,0.4,1.9c0.3,0.6,0.8,1,1.4,1.3c0.8,0.4,1.7,0.6,2.5,0.7c1.3,0.2,2.6,0.2,3.9,0.2c2.8,0,5.6-0.3,8.3-0.8
				c3-0.6,5.8-1.5,8.7-2.6c0,0.2,0.1,0.5,0.1,0.8s0,0.5,0,0.8C589.6,357,589.2,358.3,588.7,359.5L588.7,359.5z M501.2,410.1v27.1
				h-1.3v-27.1h-9.2v-1.3h19.7v1.3H501.2z M529.2,435.9v1.3h-15.6v-28.4h15.2v1.3H515v11.6h12.8v1.3H515v12.9L529.2,435.9z
				 M552,437.2h-1.5l-9.6-13.8l-9.6,13.8h-1.5l10.3-14.8l-9.5-13.5h1.5l8.8,12.5l8.8-12.5h1.5l-9.5,13.6L552,437.2z M575.4,437.2
				l-3.6-8.2h-15.5l-3.5,8.2h-1.4l12-28.4h1.1l12.3,28.4L575.4,437.2z M564,410.7l-7.1,17h14.5L564,410.7L564,410.7z M586.8,409.7
				c-4.7,0-7.7,2.4-7.7,6.2c0,4.3,4,5.2,8.1,6.1c4.5,1,9.1,2.1,9.1,7.5c0,4.8-3.9,8-9.3,8c-5.9,0-9.9-3.4-9.9-8.7h1.3
				c0,4.5,3.4,7.4,8.5,7.4c4.7,0,8-2.7,8-6.7c0-4.5-4-5.4-8.2-6.3c-4.4-1-9.1-2-9.1-7.3c0-4.5,3.6-7.5,9.1-7.5
				c5.3,0,8.8,3.1,8.8,7.9h-1.3C594.3,412.4,591.3,409.7,586.8,409.7L586.8,409.7z M394.4,450.1c-4,0-6.9,3.2-6.9,7.6
				s2.9,7.6,6.9,7.6c3.1,0,5.8-2.2,6.4-5.2h7.9c-0.8,7.3-7,12.7-14.3,12.5l0,0c-8.2,0.2-15.1-6.3-15.3-14.5s6.3-15.1,14.5-15.3
				c0.3,0,0.5,0,0.8,0c7.1-0.2,13.3,5,14.3,12.1h-7.9C399.9,452.1,397.4,450.1,394.4,450.1L394.4,450.1z M424.5,472.6L424.5,472.6
				c-9.1,0-15.5-6.2-15.5-14.9s6.5-14.9,15.5-14.9S440,449,440,457.7S433.6,472.6,424.5,472.6L424.5,472.6z M424.5,450.1
				c-4.2,0.2-7.5,3.7-7.4,7.9c0.1,4,3.4,7.2,7.4,7.4l0,0c4.2-0.2,7.5-3.7,7.4-7.9C431.7,453.4,428.5,450.2,424.5,450.1z
				 M469.5,471.9l-2.2-16.4l-7.4,16.4h-2.3l-7.5-16.4l-2.2,16.4H440l4.3-28.4h7.8l6.7,15.4l6.7-15.5h7.8l4.2,28.4L469.5,471.9z
				 M491.1,464.1H487v7.8h-7.8v-28.4h12c5.7-0.2,10.4,4.3,10.6,10c0.2,5.7-4.3,10.4-10,10.6C491.6,464.1,491.4,464.1,491.1,464.1
				L491.1,464.1z M490.2,450.4H487v6.9h3.3c1.9-0.1,3.4-1.7,3.3-3.6C493.5,451.9,492,450.5,490.2,450.4L490.2,450.4z M515.1,472.6
				c-7.2,0-12.3-4.7-12.3-11.7v-17.4h7.9v17.3c0,2.4,2,4.4,4.4,4.4c2.4,0,4.4-2,4.4-4.4c0,0,0,0,0,0v-17.3h7.9v17.4
				C527.4,467.9,522.3,472.6,515.1,472.6L515.1,472.6z M544,450.6v21.4h-7.8v-21.3h-7.7v-7h23.1v7L544,450.6z M571.5,465.1v6.8
				h-18.3v-28.4h18v6.8h-10.3v4.2h9.3v6.4h-9.3v4.2L571.5,465.1z M592.2,461.6l5.6,10.3h-8.7l-4.6-8.7h-2.8v8.7H574v-28.4h12.2
				c6.1,0,10.5,4.1,10.5,10C596.8,456.9,595.1,459.9,592.2,461.6L592.2,461.6z M585.3,450.5h-3.5v6.2h3.5c2.2,0,3.4-1.3,3.4-3.1
				S587.5,450.5,585.3,450.5z M469.9,505.3v1.3h-15.6v-28.4h15.2v1.3h-13.9v11.6h12.8v1.2h-12.8v12.9L469.9,505.3z M492.6,506.6
				h-1.5l-9.6-13.8l-9.6,13.8h-1.5l10.4-14.8l-9.5-13.5h1.5l8.8,12.5l8.8-12.5h1.5l-9.5,13.6L492.6,506.6L492.6,506.6z M504.9,495.3
				h-8.2v11.3h-1.3v-28.4h9.5c4.7-0.2,8.7,3.4,9,8.1c0.2,4.7-3.4,8.7-8.1,9C505.5,495.3,505.2,495.3,504.9,495.3z M504.9,479.5h-8.1
				V494h8.1c4,0.1,7.4-3,7.5-7c0.1-4-3-7.4-7-7.5C505.2,479.5,505,479.5,504.9,479.5L504.9,479.5z M533.1,505.3v1.3h-15.6v-28.4
				h15.2v1.3h-13.8v11.6h12.8v1.2h-12.8v12.9L533.1,505.3z M548.7,494.3l7.4,12.4h-1.5l-7.3-12.3h-8.7v12.3h-1.3v-28.4h10.2
				c5,0,8.6,3.4,8.6,8.1C556.2,490.5,552.9,494,548.7,494.3L548.7,494.3z M547.5,479.5h-8.9V493h8.9c4.3,0,7.3-2.8,7.3-6.7
				S551.8,479.5,547.5,479.5L547.5,479.5z M567.3,479.5v27.1H566v-27.1h-9.2v-1.3h19.7v1.3L567.3,479.5z M586.8,479.2
				c-4.7,0-7.7,2.4-7.7,6.2c0,4.3,4,5.2,8.1,6.1c4.5,1,9.1,2.1,9.1,7.5c0,4.8-3.9,8-9.3,8c-5.9,0-9.9-3.4-9.9-8.7h1.3
				c0,4.5,3.4,7.4,8.5,7.4c4.7,0,8-2.7,8-6.7c0-4.5-4-5.4-8.2-6.3c-4.4-1-9.1-2-9.1-7.3c0-4.5,3.6-7.5,9.1-7.5
				c5.3,0,8.8,3.1,8.8,7.9h-1.3C594.3,481.8,591.3,479.2,586.8,479.2L586.8,479.2z M376.8,431.3c-32.1,28.8-22.7,86.1-22.7,86.1
				s-1.6,0.6-11.1,0.6c-4.6,0-11-5-18.2-7.4c-17.6-6-26.8-15.6-37.8-40.5s-16.8-33.5-23.5-44.8s-13.3-10.2-18.1-6
				s-12.3,16-19.6,15.1c-5.9-0.8-19.1-10.3-31.7-27.2c-10.7-14.4-13.6-31.7-13.6-31.7s-5.6-1-15.1-13.6
				c-10.4-13.8-15.1-25-15.1-27.2s0-9.1,6-9.1h58.9v-92.2h104.3v42.3l-11.3-0.7v-30.3h-81.6c0,4.9-0.7,92.9-0.7,92.9h-57.4
				c1.6,5.6,4.3,10.7,7.9,15.2c5.9,7.4,15.4,14.7,16.3,16.5c1.8,3.6,6.7,19,13.6,30.2s18.4,18.2,21.1,18.1s6.7-6.3,11.7-11.5
				c3.9-4.1,19.1-8.9,35.6,12.1c20.4,25.9,28.7,62.4,37.2,68.9c6.4,4.8,7.7,6.2,16.6,10.6c5.9,2.8,12,5.4,18.1,7.5
				c0,0-17.3-58.8,18.1-87.6c37.8-30.8,104.3-19.6,104.3-19.6S408.6,402.8,376.8,431.3L376.8,431.3z"/>
		</g>
		<g id="Layer_2_1_">
			<path d="M308.1,275l11.3,0.7v-42.3H215.1v92.2H156c-1.1-0.1-2.2,0.2-3.1,0.9c-2.9,1.9-3.1,6.3-2.6,8.9c0.2,0.8,0.4,1.6,0.7,2.3
				c1.8,4.2,3.9,8.3,6.2,12.2c1.9,3,4.4,7,8.1,12c2.2,2.8,4.6,5.6,7.1,8.2c1.4,1.5,3.1,2.9,4.9,3.9c1,0.6,2.1,1.1,3.2,1.5
				c0.6,3,1.3,6,2.3,8.9c3.3,10.1,8.4,19.4,15.1,27.6c3.7,4.7,7.8,9.1,12.3,13c0,0,2.2,2.1,10.4,7.4c1.3,0.9,2.7,1.5,4.2,1.8
				c1.5,0.3,3,0.2,4.4-0.2c2.2-0.6,3.8-1.8,5.6-3.5c3.9-3.6,5-5.5,9.3-9.8c1.9-2,3.4-3.2,5.6-3.9c1.5-0.5,3-0.5,4.6-0.3
				c1.2,0.2,3.4,0.9,6.7,4.8c2,2.4,3.7,5,5,7.8c2.9,5.5,2.3,3.5,6.5,11c1.1,1.9,5.2,9.4,11.1,22c4.3,9.1,3.8,8.7,6,13.1
				c5.3,10.7,8.1,16.3,14,22.2c2.2,2.2,8.1,8.1,15.6,10.9c1,0.4,2.9,1,5.8,2.2c3.2,1.3,6.4,2.7,9.5,4.3c1.3,0.8,2.7,1.4,4.2,2
				c1.1,0.4,2.3,0.8,3.4,1.1l8.2-0.1l4.1-0.4c-2.3-12.3-4.5-34,4.4-57.3c2.3-6.1,6.3-16.2,15.5-26.2c6.1-6.5,13.9-12.6,29.7-19.5
				c13.3-5.8,35.3-13.6,65.2-16.4c-15.3-2.5-30.9-2.9-46.3-1.1c-16.9,1.9-35.2,4.1-52.7,16.9c-7.5,5.1-13.8,11.8-18.4,19.6
				c-6,10.4-7.1,19.9-8.1,29.6c-1.4,14.2-0.4,28.5,3.2,42.3c-9.7-3.6-19-8-28-13.1c-2.5-1.4-4.7-3.1-6.7-5
				c-3.8-3.9-6.7-8.6-8.4-13.7c-6.8-19.1-18-38.5-21.4-44.5c-3.5-6.5-8.1-12.4-13.5-17.4c-8.4-7.6-13.9-8.4-15.3-8.6
				c-1.9-0.2-9.3-1.2-14.2,3.1c-1.2,1-3.2,3.4-7.2,8.1c-1.3,1.5-2.5,3.1-4.6,3.4c-1.6,0.1-3.3-0.3-4.6-1.3
				c-5.2-3.4-9.8-7.6-13.6-12.5c-5.4-7.5-8.3-14.2-11.1-20.6c-1.6-3.6-2.7-6.6-3.4-8.7c-0.4-1.8-1.1-3.6-2.1-5.1
				c-1.1-1.8-2.6-3.3-4.3-4.6c-4.7-3.5-13.2-11.7-17.6-21.1c-0.9-2-1.7-4-2.2-6.1h57.4c0.2-31,0.5-62,0.7-92.9h81.6V275z"/>
			<path d="M284.7,314c0.8,0.3,1.6,0.5,2.4,0.7c2.8,0.5,5.7,0.3,8.5-0.5c0,0,5.9-1.2,13.4-2.1c0.9-0.1,1.8-0.1,2.7,0
				c1.1,0.1,2.1,0.5,2.9,1.1c0.9,1.1,1.4,2.4,1.3,3.8c0.1,1.1,0,2.1-0.3,3.2c-1.2-0.4-2.5-0.7-3.8-0.8c-2.2-0.2-4.5,0-6.6,0.6
				c-2.5,12.6-5,25.2-7.5,37.8c1.9-0.3,3.7-0.6,5.6-0.7c4-0.3,5,0.1,5.6,0.7c0.7,0.7,1.1,1.7,1.2,2.7L310,365
				c-0.9-0.3-1.8-0.5-2.7-0.6c-3-0.5-5.2-0.2-8.7,0.2c-4.1,0.5-8.4,0.8-12.5,1.5c-1.5,0.2-3,0.2-4.5,0c-0.8,0-1.5-0.2-2.2-0.6
				c-1.1-0.9-1.7-2.1-1.8-3.5c-0.3-1.4-0.2-2.8,0.3-4.1c0.2,0.1,0.5,0.2,0.8,0.4c2,0.8,4.2,1,6.3,0.7c0.7-0.1,1.4-0.2,2.1-0.3
				c2.5-12.6,5-25.2,7.5-37.7l-4.2,0.5c-0.4,0-0.9,0.1-1.3,0.1c-0.7,0-1.4-0.1-2.1-0.3c-1.2-0.5-1.6-1.9-2-3
				C284.5,316.8,284.4,315.4,284.7,314z"/>
		</g>
	</g>


</svg>
